<?xml version="1.0" encoding="UTF-8" standalone="no"?>
<svg width="799px" height="137px" viewBox="0 0 799 137" version="1.1" xmlns="http://www.w3.org/2000/svg" xmlns:xlink="http://www.w3.org/1999/xlink">
    <!-- Generator: Sketch 3.8 (29681) - http://www.bohemiancoding.com/sketch -->
    <title>architect</title>
    <desc>Created with Sketch.</desc>
    <defs></defs>
    <g id="Page-1" stroke="none" stroke-width="1" fill="none" fill-rule="evenodd">
        <path d="M68.5418994,103.6 C64.0391061,110.08 56.2943017,114.4 47.4688268,114.4 C34.3206704,114.4 24.4145251,104.32 24.4145251,90.64 C24.4145251,78.04 33.24,66.7 46.9284916,66.7 C55.9340782,66.7 63.6788827,71.02 68.5418994,77.5 L68.5418994,103.6 Z M91.9564246,46.9 L69.4424581,46.9 L69.4424581,53.92 C62.5982123,48.34 53.7727374,45.1 43.8665922,45.1 C20.0918436,45.1 1,64.9 1,90.64 C1,102.52 5.32268156,113.32 12.1669274,121.24 C19.9117318,130.24 32.1593296,136 45.1273743,136 C53.9528492,136 62.2379888,133.3 69.4424581,127.18 L69.4424581,134.2 L91.9564246,134.2 L91.9564246,46.9 Z M174.807821,45.82 C172.286257,45.46 170.305028,45.1 166.882905,45.1 C156.256313,45.1 146.710391,49.24 141.487151,55.72 L141.487151,46.9 L118.973184,46.9 L118.973184,134.2 L142.387709,134.2 L142.387709,79.3 C145.269497,74.08 153.374525,66.7 163.640894,66.7 C167.063017,66.7 170.48514,67.06 172.106145,67.6 L174.807821,45.82 Z M251.355307,102.88 C247.572961,108.64 240.008268,114.4 230.462346,114.4 C216.23352,114.4 206.327374,104.32 206.327374,90.64 C206.327374,77.32 216.413631,66.7 229.922011,66.7 C238.387263,66.7 245.41162,71.02 250.094525,77.14 L266.664804,62.56 C258.559777,52.12 245.051397,45.1 229.922011,45.1 C203.265475,45.1 182.912849,65.26 182.912849,90.64 C182.912849,115.84 202.72514,136 229.741899,136 C246.132067,136 259.100112,130.06 269.36648,116.38 L251.355307,102.88 Z M310.792179,77.5 C314.03419,73 322.139218,66.7 332.045363,66.7 C337.448715,66.7 342.13162,68.5 345.19352,71.56 C348.435531,74.8 350.41676,79.3 350.41676,87.94 L350.41676,134.2 L373.831285,134.2 L373.831285,89.74 C373.831285,74.8 370.589274,65.98 364.825698,59.14 C357.621229,50.5 346.634413,45.1 334.566927,45.1 C325.561341,45.1 317.276201,48.16 310.792179,53.2 L310.792179,6.4 L287.377654,6.4 L287.377654,134.2 L310.792179,134.2 L310.792179,77.5 Z M422.461453,46.9 L399.046927,46.9 L399.046927,134.2 L422.461453,134.2 L422.461453,46.9 Z M395.444693,15.94 C395.444693,24.4 402.288939,30.88 410.75419,30.88 C419.219441,30.88 426.063687,24.4 426.063687,15.94 C426.063687,7.48 419.219441,1 410.75419,1 C402.288939,1 395.444693,7.48 395.444693,15.94 L395.444693,15.94 Z M511.61676,114.4 C509.995754,114.76 505.492961,115.3 502.070838,115.3 C496.307263,115.3 492.524916,113.68 490.183464,110.98 C488.202235,108.64 487.301676,105.4 487.301676,100 L487.301676,66.7 L516.119553,66.7 L516.119553,46.9 L487.301676,46.9 L487.301676,22.6 L463.887151,22.6 L463.887151,46.9 L439.572067,46.9 L439.572067,66.7 L463.887151,66.7 L463.887151,97.3 C463.887151,109.72 465.86838,117.46 470.371173,123.4 C476.31486,131.32 486.581229,136 500.629944,136 C505.132737,136 512.157095,135.28 515.218994,134.2 L511.61676,114.4 Z M596.989721,107.02 C592.847151,111.52 584.922235,117.1 575.016089,117.1 C562.58838,117.1 552.682235,108.64 551.421453,96.4 L611.938994,96.4 C612.299218,94.42 612.47933,92.08 612.47933,89.74 C612.47933,65.44 595.368715,45.1 571.233743,45.1 C545.297654,45.1 528.727374,66.34 528.727374,90.64 C528.727374,118 548.359553,136 574.475754,136 C587.984134,136 601.852737,130.42 610.317989,120.34 L596.989721,107.02 Z M552.502123,79.3 C553.582793,71.38 561.507709,64 571.233743,64 C580.779665,64 587.804022,71.56 588.524469,79.3 L552.502123,79.3 Z M695.330726,102.88 C691.54838,108.64 683.983687,114.4 674.437765,114.4 C660.208939,114.4 650.302793,104.32 650.302793,90.64 C650.302793,77.32 660.38905,66.7 673.89743,66.7 C682.362682,66.7 689.387039,71.02 694.069944,77.14 L710.640223,62.56 C702.535196,52.12 689.026816,45.1 673.89743,45.1 C647.240894,45.1 626.888268,65.26 626.888268,90.64 C626.888268,115.84 646.700559,136 673.717318,136 C690.107486,136 703.075531,130.06 713.341899,116.38 L695.330726,102.88 Z M793.49162,114.4 C791.870615,114.76 787.367821,115.3 783.945698,115.3 C778.182123,115.3 774.399777,113.68 772.058324,110.98 C770.077095,108.64 769.176536,105.4 769.176536,100 L769.176536,66.7 L797.994413,66.7 L797.994413,46.9 L769.176536,46.9 L769.176536,22.6 L745.762011,22.6 L745.762011,46.9 L721.446927,46.9 L721.446927,66.7 L745.762011,66.7 L745.762011,97.3 C745.762011,109.72 747.74324,117.46 752.246034,123.4 C758.189721,131.32 768.456089,136 782.504804,136 C787.007598,136 794.031955,135.28 797.093855,134.2 L793.49162,114.4 Z" id="architect" stroke="#000000" stroke-width="2"></path>
    </g>
</svg>