<?xml version="1.0" encoding="UTF-8" standalone="no"?>
<svg width="532px" height="137px" viewBox="0 0 532 137" version="1.1" xmlns="http://www.w3.org/2000/svg" xmlns:xlink="http://www.w3.org/1999/xlink">
    <!-- Generator: Sketch 3.8 (29681) - http://www.bohemiancoding.com/sketch -->
    <title>techie</title>
    <desc>Created with Sketch.</desc>
    <defs></defs>
    <g id="Page-1" stroke="none" stroke-width="1" fill="none" fill-rule="evenodd">
        <path d="M72.9463087,114.4 C71.3275168,114.76 66.8308725,115.3 63.4134228,115.3 C57.6577181,115.3 53.8805369,113.68 51.5422819,110.98 C49.5637584,108.64 48.6644295,105.4 48.6644295,100 L48.6644295,66.7 L77.442953,66.7 L77.442953,46.9 L48.6644295,46.9 L48.6644295,22.6 L25.2818792,22.6 L25.2818792,46.9 L1,46.9 L1,66.7 L25.2818792,66.7 L25.2818792,97.3 C25.2818792,109.72 27.2604027,117.46 31.757047,123.4 C37.6926174,131.32 47.9449664,136 61.9744966,136 C66.4711409,136 73.485906,135.28 76.5436242,134.2 L72.9463087,114.4 Z M158.202685,107.02 C154.065772,111.52 146.151678,117.1 136.25906,117.1 C123.848322,117.1 113.955705,108.64 112.696644,96.4 L173.131544,96.4 C173.491275,94.42 173.671141,92.08 173.671141,89.74 C173.671141,65.44 156.583893,45.1 132.481879,45.1 C106.581208,45.1 90.033557,66.34 90.033557,90.64 C90.033557,118 109.638926,136 135.719463,136 C149.209396,136 163.05906,130.42 171.512752,120.34 L158.202685,107.02 Z M113.775839,79.3 C114.855034,71.38 122.769128,64 132.481879,64 C142.014765,64 149.02953,71.56 149.748993,79.3 L113.775839,79.3 Z M256.409396,102.88 C252.632215,108.64 245.077852,114.4 235.544966,114.4 C221.33557,114.4 211.442953,104.32 211.442953,90.64 C211.442953,77.32 221.515436,66.7 235.005369,66.7 C243.45906,66.7 250.473826,71.02 255.150336,77.14 L271.697987,62.56 C263.604027,52.12 250.114094,45.1 235.005369,45.1 C208.385235,45.1 188.060403,65.26 188.060403,90.64 C188.060403,115.84 207.845638,136 234.825503,136 C251.193289,136 264.143624,130.06 274.395973,116.38 L256.409396,102.88 Z M315.765101,77.5 C319.002685,73 327.096644,66.7 336.989262,66.7 C342.385235,66.7 347.061745,68.5 350.119463,71.56 C353.357047,74.8 355.33557,79.3 355.33557,87.94 L355.33557,134.2 L378.718121,134.2 L378.718121,89.74 C378.718121,74.8 375.480537,65.98 369.724832,59.14 C362.530201,50.5 351.558389,45.1 339.507383,45.1 C330.514094,45.1 322.240268,48.16 315.765101,53.2 L315.765101,6.4 L292.38255,6.4 L292.38255,134.2 L315.765101,134.2 L315.765101,77.5 Z M427.281879,46.9 L403.899329,46.9 L403.899329,134.2 L427.281879,134.2 L427.281879,46.9 Z M400.302013,15.94 C400.302013,24.4 407.136913,30.88 415.590604,30.88 C424.044295,30.88 430.879195,24.4 430.879195,15.94 C430.879195,7.48 424.044295,1 415.590604,1 C407.136913,1 400.302013,7.48 400.302013,15.94 L400.302013,15.94 Z M515.236242,107.02 C511.099329,111.52 503.185235,117.1 493.292617,117.1 C480.881879,117.1 470.989262,108.64 469.730201,96.4 L530.165101,96.4 C530.524832,94.42 530.704698,92.08 530.704698,89.74 C530.704698,65.44 513.61745,45.1 489.515436,45.1 C463.614765,45.1 447.067114,66.34 447.067114,90.64 C447.067114,118 466.672483,136 492.75302,136 C506.242953,136 520.092617,130.42 528.546309,120.34 L515.236242,107.02 Z M470.809396,79.3 C471.888591,71.38 479.802685,64 489.515436,64 C499.048322,64 506.063087,71.56 506.78255,79.3 L470.809396,79.3 Z" id="techie" stroke="#E35050" stroke-width="2"></path>
    </g>
</svg>